<svg width="137" height="169" xmlns="http://www.w3.org/2000/svg" preserveAspectRatio="xMidYMid meet">
 <defs>
  <path d="m139.820007,54.75l145.369995,0l0,158.110001l-145.369995,0l0,-158.110001z" id="a15Asl0zux"/>
  <path d="m151.289993,69.949997l48.25,0l0,47.43l-48.25,0l0,-47.43z" id="fDVuOXvbq"/>
  <path d="m188.080002,82.720001c1.830002,0 3.319992,1.489998 3.319992,3.32c0,0.68 0,-0.620003 0,0.059998c0,1.830002 -1.48999,3.310005 -3.319992,3.310005c-5.729996,0 -19.600006,0 -25.330002,0c-1.839996,0 -3.320007,-1.480003 -3.320007,-3.310005c0,-0.68 0,0.620003 0,-0.059998c0,-1.830002 1.480011,-3.32 3.320007,-3.32c5.729996,0 19.600006,0 25.330002,0z" id="cTCkL4nmV"/>
  <path d="m188.080002,96.050003c1.830002,0 3.319992,1.479996 3.319992,3.32c0,0.669998 0,-0.620003 0,0.049995c0,1.830002 -1.48999,3.32 -3.319992,3.32c-5.729996,0 -19.600006,0 -25.330002,0c-1.839996,0 -3.320007,-1.489998 -3.320007,-3.32c0,-0.669998 0,0.620003 0,-0.049995c0,-1.840004 1.480011,-3.32 3.320007,-3.32c5.729996,0 19.600006,0 25.330002,0z" id="apHk1U0Ku"/>
  <path d="m153.039993,133.800003l48.26001,0l0,47.429993l-48.26001,0l0,-47.429993z" id="aJNheYU4e"/>
  <path d="m221.75,69.949997l48.25,0l0,47.43l-48.25,0l0,-47.43z" id="b2aC3JHaX2"/>
  <path d="m219.889999,133.800003l48.250015,0l0,47.429993l-48.250015,0l0,-47.429993z" id="m64LUFfrH"/>
  <path d="m256.679993,82.720001c1.830017,0 3.320007,1.489998 3.320007,3.32c0,0.68 0,-0.620003 0,0.059998c0,1.830002 -1.48999,3.310005 -3.320007,3.310005c-5.729996,0 -19.599991,0 -25.329987,0c-1.830002,0 -3.320007,-1.480003 -3.320007,-3.310005c0,-0.68 0,0.620003 0,-0.059998c0,-1.830002 1.490005,-3.32 3.320007,-3.32c5.729996,0 19.599991,0 25.329987,0z" id="e8cQYjD0BZ"/>
  <path d="m256.679993,152.550003c1.830017,0 3.320007,1.479996 3.320007,3.309998c0,0.679993 0,-0.619995 0,0.059998c0,1.830002 -1.48999,3.320007 -3.320007,3.320007c-5.729996,0 -19.599991,0 -25.329987,0c-1.830002,0 -3.320007,-1.490005 -3.320007,-3.320007c0,-0.679993 0,0.619995 0,-0.059998c0,-1.830002 1.490005,-3.309998 3.320007,-3.309998c5.729996,0 19.599991,0 25.329987,0z" id="d8vmUMjxJk"/>
  <path d="m256.679993,164.660004c1.830017,0 3.320007,1.479996 3.320007,3.309998c0,0.679993 0,-0.619995 0,0.059998c0,1.830002 -1.48999,3.309998 -3.320007,3.309998c-5.729996,0 -19.599991,0 -25.329987,0c-1.830002,0 -3.320007,-1.479996 -3.320007,-3.309998c0,-0.679993 0,0.619995 0,-0.059998c0,-1.830002 1.490005,-3.309998 3.320007,-3.309998c5.729996,0 19.599991,0 25.329987,0z" id="asKe32Tf5"/>
  <path d="m188.080002,145.860001c1.830002,0 3.319992,1.479996 3.319992,3.319992c0,0.670013 0,-0.619995 0,0.050003c0,1.830002 -1.48999,3.320007 -3.319992,3.320007c-5.729996,0 -19.600006,0 -25.330002,0c-1.839996,0 -3.320007,-1.490005 -3.320007,-3.320007c0,-0.669998 0,0.62001 0,-0.050003c0,-1.839996 1.480011,-3.319992 3.320007,-3.319992c5.729996,0 19.600006,0 25.330002,0z" id="ej4RTJolS"/>
  <path d="m173.75,161.309998c0.919998,0 1.660004,0.740005 1.660004,1.660004c0,1.009995 0,2.369995 0,3.369995c0,0.919998 -0.740005,1.660004 -1.660004,1.660004c-2.860001,0 -9.800003,0 -12.660004,0c-0.919998,0 -1.660004,-0.740005 -1.660004,-1.660004c0,-1 0,-2.360001 0,-3.369995c0,-0.919998 0.740005,-1.660004 1.660004,-1.660004c2.860001,0 9.800003,0 12.660004,0z" id="a1pQr3kJl"/>
  <path d="m194.110001,165.490005c0,3.229996 -2.699997,5.849991 -6.029999,5.849991c-3.330002,0 -6.029999,-2.619995 -6.029999,-5.849991c0,-3.240005 2.699997,-5.860001 6.029999,-5.860001c3.330002,0 6.029999,2.619995 6.029999,5.860001z" id="b1rp56YF9a"/>
  <path d="m321.559998,157.520004l20.200012,-20.070007l-20.200012,-20.07l0,12.730003l-21.419983,0l0,14.720001l21.419983,0l0,12.690002z" id="hMVOIHQby"/>
  <path d="m349.649994,54.75l145.369995,0l0,158.110001l-145.369995,0l0,-158.110001z" id="b16UtPlX85"/>
  <path d="m377.399994,86.599998l89.869995,0l0,82.700005l-89.869995,0l0,-82.700005z" id="e7FPNA6YwU"/>
  <path d="m451.769989,119.589996c3.230011,0 5.850006,-2.619995 5.850006,-5.859993c0,-1.170006 0,1.169998 0,0c0,-3.230003 -2.619995,-5.860001 -5.850006,-5.860001c-12.949982,0 -45.919983,0 -58.859985,0c-3.23999,0 -5.860016,2.629997 -5.860016,5.860001c0,1.169998 0,-1.170006 0,0c0,3.239998 2.620026,5.859993 5.860016,5.859993c12.940002,0 45.910004,0 58.859985,0z" id="e1LFsWwEZ"/>
  <path d="m451.769989,145.520004c3.230011,0 5.850006,-2.62001 5.850006,-5.860001c0,-1.169998 0,1.169998 0,0c0,-3.230011 -2.619995,-5.860001 -5.850006,-5.860001c-12.949982,0 -45.919983,0 -58.859985,0c-3.23999,0 -5.860016,2.62999 -5.860016,5.860001c0,1.169998 0,-1.169998 0,0c0,3.23999 2.620026,5.860001 5.860016,5.860001c12.940002,0 45.910004,0 58.859985,0z" id="adaO6dgVB"/>
  <path d="m233.220001,114.529999l0,-20.860001l21.589996,0l0,20.860001l-21.589996,0zm2.699997,-2.610001l4.050003,-3.909996l2.699997,1.309998l4.040009,-5.220001l5.399994,6.959999l0,-14.779999l-16.190002,0l0,15.639999zm4.919998,-12.699997l0.089996,0.010002l0.100006,0.009995l0.089996,0.020004l0.090012,0.019997l0.089996,0.020004l0.089996,0.029999l0.089996,0.029999l0.080002,0.029999l0.089996,0.040001l0.080002,0.040001l0.080002,0.040001l0.080002,0.040001l0.070007,0.049995l0.079987,0.050003l0.070007,0.049995l0.069992,0.060005l0.070007,0.059998l0.059998,0.059998l0.059998,0.060005l0.059998,0.07l0.060013,0.07l0.059998,0.07l0.050003,0.07l0.049988,0.07l0.050003,0.080002l0.040009,0.07l0.039993,0.079994l0.040009,0.080002l0.029999,0.090004l0.029999,0.079994l0.029999,0.090004l0.019989,0.080002l0.030014,0.089996l0.009995,0.090004l0.020004,0.089996l0.009995,0.099998l0,0.090004l0,0.089996l0,0.099998l0,0.090004l-0.009995,0.089996l-0.020004,0.090004l-0.009995,0.089996l-0.030014,0.090004l-0.019989,0.089996l-0.029999,0.080002l-0.029999,0.090004l-0.029999,0.079994l-0.040009,0.080002l-0.039993,0.080002l-0.040009,0.080002l-0.050003,0.079994l-0.049988,0.07l-0.050003,0.07l-0.059998,0.070007l-0.060013,0.07l-0.059998,0.059998l-0.059998,0.07l-0.059998,0.059998l-0.070007,0.060005l-0.069992,0.049995l-0.070007,0.050003l-0.079987,0.059998l-0.070007,0.040001l-0.080002,0.050003l-0.080002,0.039993l-0.080002,0.040001l-0.089996,0.040001l-0.080002,0.029999l-0.089996,0.030006l-0.089996,0.029999l-0.089996,0.019997l-0.090012,0.020004l-0.089996,0.019997l-0.100006,0.010002l-0.089996,0.009995l-0.099991,0l-0.100006,0l-0.089996,0l-0.100006,0l-0.099991,-0.009995l-0.090012,-0.010002l-0.089996,-0.019997l-0.089996,-0.020004l-0.100006,-0.019997l-0.080002,-0.029999l-0.089996,-0.030006l-0.089996,-0.029999l-0.080002,-0.040001l-0.080002,-0.040001l-0.080002,-0.039993l-0.080002,-0.050003l-0.079987,-0.040001l-0.070007,-0.059998l-0.070007,-0.050003l-0.069992,-0.049995l-0.070007,-0.060005l-0.069992,-0.059998l-0.059998,-0.07l-0.059998,-0.059998l-0.060013,-0.07l-0.049988,-0.070007l-0.060013,-0.07l-0.039993,-0.07l-0.050003,-0.079994l-0.039993,-0.080002l-0.050003,-0.080002l-0.029999,-0.080002l-0.040009,-0.079994l-0.029999,-0.090004l-0.029999,-0.080002l-0.019989,-0.089996l-0.020004,-0.090004l-0.020004,-0.089996l-0.009995,-0.090004l-0.01001,-0.089996l-0.009995,-0.090004l0,-0.099998l0,-0.089996l0.009995,-0.090004l0.01001,-0.099998l0.009995,-0.089996l0.020004,-0.090004l0.020004,-0.089996l0.019989,-0.080002l0.029999,-0.090004l0.029999,-0.079994l0.040009,-0.090004l0.029999,-0.080002l0.050003,-0.079994l0.039993,-0.07l0.050003,-0.080002l0.039993,-0.07l0.060013,-0.07l0.049988,-0.07l0.060013,-0.07l0.059998,-0.07l0.059998,-0.060005l0.069992,-0.059998l0.070007,-0.059998l0.069992,-0.060005l0.070007,-0.049995l0.070007,-0.050003l0.079987,-0.049995l0.080002,-0.040001l0.080002,-0.040001l0.080002,-0.040001l0.080002,-0.040001l0.089996,-0.029999l0.089996,-0.029999l0.080002,-0.029999l0.100006,-0.020004l0.089996,-0.019997l0.089996,-0.020004l0.090012,-0.009995l0.099991,-0.010002l0.100006,-0.010002l0.089996,0l0.100006,0l0.099991,0.010002z" id="e1FuFgsIYR"/>
 </defs>
 <g>
  <title>background</title>
  <rect x="-1" y="-1" width="139" height="171" id="canvas_background" fill="none"/>
 </g>
 <g>
  <title>Layer 1</title>
  <rect fill="#fff" stroke="#000" stroke-width="1.5" x="0.33333" y="-0.333324" width="136.500007" height="168.999996" id="svg_2"/>
  <rect fill="#fff" stroke="#000" stroke-width="1.5" stroke-opacity="null" fill-opacity="null" x="16.833351" y="17.500016" width="41" height="39" id="svg_11"/>
  <rect fill="#fff" stroke="#000" stroke-width="1.5" stroke-opacity="null" fill-opacity="null" x="15.333367" y="69.166686" width="41" height="39" id="svg_13"/>
  <rect fill="#fff" stroke="#000" stroke-width="1.5" stroke-opacity="null" fill-opacity="null" x="15.166702" y="117.666691" width="41" height="39" id="svg_14"/>
  <rect fill="#fff" stroke="#000" stroke-width="1.5" stroke-opacity="null" fill-opacity="null" x="77.333369" y="16.833357" width="41" height="39" id="svg_15"/>
  <rect fill="#fff" stroke="#000" stroke-width="1.5" stroke-opacity="null" fill-opacity="null" x="77.666699" y="68.000021" width="41" height="39" id="svg_16"/>
  <rect fill="#fff" stroke="#000" stroke-width="1.5" stroke-opacity="null" fill-opacity="null" x="78.333364" y="118.000021" width="41" height="39" id="svg_17"/>
  <text fill="#000000" stroke="#000" stroke-width="0" stroke-opacity="null" fill-opacity="null" x="26.333364" y="49.666689" id="svg_18" font-size="35" font-family="'Trebuchet MS', Gadget, sans-serif" text-anchor="start" xml:space="preserve">1</text>
  <text fill="#000000" stroke="#000" stroke-width="0" stroke-opacity="null" fill-opacity="null" x="87.833367" y="50.833353" id="svg_19" font-size="35" font-family="'Trebuchet MS', Gadget, sans-serif" text-anchor="start" xml:space="preserve">2</text>
  <text fill="#000000" stroke="#000" stroke-width="0" stroke-opacity="null" fill-opacity="null" x="24.000037" y="102.833348" id="svg_20" font-size="35" font-family="'Trebuchet MS', Gadget, sans-serif" text-anchor="start" xml:space="preserve">3</text>
  <text fill="#000000" stroke="#000" stroke-width="0" stroke-opacity="null" fill-opacity="null" x="86.333367" y="101.500021" id="svg_21" font-size="35" font-family="'Trebuchet MS', Gadget, sans-serif" text-anchor="start" xml:space="preserve">4</text>
  <text fill="#000000" stroke="#000" stroke-width="0" stroke-opacity="null" fill-opacity="null" x="25.500029" y="151.000021" id="svg_22" font-size="35" font-family="'Trebuchet MS', Gadget, sans-serif" text-anchor="start" xml:space="preserve">5</text>
  <text fill="#000000" stroke="#000" stroke-width="0" stroke-opacity="null" fill-opacity="null" x="88.333364" y="152.333348" id="svg_23" font-size="35" font-family="'Trebuchet MS', Gadget, sans-serif" text-anchor="start" xml:space="preserve">6</text>
 </g>
</svg>