<svg width="139" height="172" xmlns="http://www.w3.org/2000/svg" preserveAspectRatio="xMidYMid meet">
 <defs>
  <path id="a15Asl0zux" d="m139.82001,54.75l145.36999,0l0,158.11l-145.36999,0l0,-158.11z"/>
  <path id="fDVuOXvbq" d="m151.28999,69.95l48.25,0l0,47.43l-48.25,0l0,-47.43z"/>
  <path id="cTCkL4nmV" d="m188.08,82.72c1.83,0 3.31999,1.49 3.31999,3.32c0,0.68 0,-0.62 0,0.06c0,1.83 -1.48999,3.31 -3.31999,3.31c-5.72999,0 -19.6,0 -25.33,0c-1.84,0 -3.32001,-1.48 -3.32001,-3.31c0,-0.68 0,0.62 0,-0.06c0,-1.83 1.48001,-3.32 3.32001,-3.32c5.73,0 19.60001,0 25.33,0z"/>
  <path id="apHk1U0Ku" d="m188.08,96.05c1.83,0 3.31999,1.48 3.31999,3.32c0,0.67 0,-0.62 0,0.05c0,1.83 -1.48999,3.32 -3.31999,3.32c-5.72999,0 -19.6,0 -25.33,0c-1.84,0 -3.32001,-1.49 -3.32001,-3.32c0,-0.67 0,0.62 0,-0.05c0,-1.84 1.48001,-3.32 3.32001,-3.32c5.73,0 19.60001,0 25.33,0z"/>
  <path id="aJNheYU4e" d="m153.03999,133.8l48.26001,0l0,47.43l-48.26001,0l0,-47.43z"/>
  <path id="b2aC3JHaX2" d="m221.75,69.95l48.25,0l0,47.43l-48.25,0l0,-47.43z"/>
  <path id="m64LUFfrH" d="m219.89,133.8l48.25001,0l0,47.43l-48.25001,0l0,-47.43z"/>
  <path id="e8cQYjD0BZ" d="m256.67999,82.72c1.83002,0 3.32001,1.49 3.32001,3.32c0,0.68 0,-0.62 0,0.06c0,1.83 -1.48999,3.31 -3.32001,3.31c-5.72999,0 -19.59999,0 -25.32998,0c-1.83001,0 -3.32001,-1.48 -3.32001,-3.31c0,-0.68 0,0.62 0,-0.06c0,-1.83 1.49,-3.32 3.32001,-3.32c5.72999,0 19.59999,0 25.32998,0z"/>
  <path id="d8vmUMjxJk" d="m256.67999,152.55c1.83002,0 3.32001,1.48 3.32001,3.31c0,0.67999 0,-0.61999 0,0.06c0,1.83 -1.48999,3.32001 -3.32001,3.32001c-5.72999,0 -19.59999,0 -25.32998,0c-1.83001,0 -3.32001,-1.49001 -3.32001,-3.32001c0,-0.67999 0,0.61999 0,-0.06c0,-1.83 1.49,-3.31 3.32001,-3.31c5.72999,0 19.59999,0 25.32998,0z"/>
  <path id="asKe32Tf5" d="m256.67999,164.66c1.83002,0 3.32001,1.48 3.32001,3.31c0,0.67999 0,-0.61999 0,0.06c0,1.83 -1.48999,3.31 -3.32001,3.31c-5.72999,0 -19.59999,0 -25.32998,0c-1.83001,0 -3.32001,-1.48 -3.32001,-3.31c0,-0.67999 0,0.61999 0,-0.06c0,-1.83 1.49,-3.31 3.32001,-3.31c5.72999,0 19.59999,0 25.32998,0z"/>
  <path id="ej4RTJolS" d="m188.08,145.86c1.83,0 3.31999,1.48 3.31999,3.31999c0,0.67002 0,-0.61999 0,0.05001c0,1.83 -1.48999,3.32 -3.31999,3.32c-5.72999,0 -19.6,0 -25.33,0c-1.84,0 -3.32001,-1.49 -3.32001,-3.32c0,-0.67 0,0.62001 0,-0.05001c0,-1.83999 1.48001,-3.31999 3.32001,-3.31999c5.73,0 19.60001,0 25.33,0z"/>
  <path id="a1pQr3kJl" d="m173.75,161.31c0.92,0 1.66,0.74 1.66,1.66c0,1.01 0,2.37 0,3.37c0,0.91999 -0.74,1.66 -1.66,1.66c-2.86,0 -9.8,0 -12.66,0c-0.92,0 -1.66001,-0.74 -1.66001,-1.66c0,-1 0,-2.36 0,-3.37c0,-0.92 0.74001,-1.66 1.66001,-1.66c2.86,0 9.8,0 12.66,0z"/>
  <path id="b1rp56YF9a" d="m194.11,165.49c0,3.23 -2.7,5.85 -6.03,5.85c-3.33,0 -6.03,-2.62 -6.03,-5.85c0,-3.24 2.7,-5.86 6.03,-5.86c3.33,0 6.03,2.62 6.03,5.86z"/>
  <path id="hMVOIHQby" d="m321.56,157.52l20.20001,-20.07l-20.20001,-20.07l0,12.73l-21.41998,0l0,14.72l21.41998,0l0,12.69z"/>
  <path id="b16UtPlX85" d="m349.64999,54.75l145.37,0l0,158.11l-145.37,0l0,-158.11z"/>
  <path id="e7FPNA6YwU" d="m377.39999,86.6l89.87,0l0,82.7l-89.87,0l0,-82.7z"/>
  <path id="e1LFsWwEZ" d="m451.76999,119.59c3.23001,0 5.85001,-2.62 5.85001,-5.86c0,-1.17 0,1.17 0,0c0,-3.23 -2.62,-5.86 -5.85001,-5.86c-12.94998,0 -45.91998,0 -58.85999,0c-3.23999,0 -5.86001,2.63 -5.86001,5.86c0,1.17 0,-1.17 0,0c0,3.24 2.62002,5.86 5.86001,5.86c12.94001,0 45.91001,0 58.85999,0z"/>
  <path id="adaO6dgVB" d="m451.76999,145.52c3.23001,0 5.85001,-2.62001 5.85001,-5.86c0,-1.17 0,1.17 0,0c0,-3.23001 -2.62,-5.86 -5.85001,-5.86c-12.94998,0 -45.91998,0 -58.85999,0c-3.23999,0 -5.86001,2.62999 -5.86001,5.86c0,1.17 0,-1.17 0,0c0,3.23999 2.62002,5.86 5.86001,5.86c12.94001,0 45.91001,0 58.85999,0z"/>
  <path id="e1FuFgsIYR" d="m233.22,114.53l0,-20.86l21.59,0l0,20.86l-21.59,0zm2.7,-2.61l4.05,-3.91l2.7,1.31l4.04001,-5.22l5.39999,6.96l0,-14.78l-16.19,0l0,15.64zm4.92,-12.7l0.08999,0.01l0.10001,0.01l0.08999,0.02l0.09002,0.02l0.08999,0.02l0.09,0.03l0.08999,0.03l0.08001,0.03l0.08999,0.04l0.08,0.04l0.08001,0.04l0.08,0.04l0.07001,0.05l0.07998,0.05l0.07001,0.05l0.06999,0.06l0.07001,0.06l0.06,0.06l0.05999,0.06l0.06,0.07l0.06002,0.07l0.05999,0.07l0.05001,0.07l0.04998,0.07l0.05001,0.08l0.04001,0.07l0.03999,0.08l0.04001,0.08l0.03,0.09l0.03,0.08l0.03,0.09l0.01998,0.08l0.03002,0.09l0.00999,0.09l0.02001,0.09l0.00999,0.1l0,0.09l0,0.09l0,0.1l0,0.09l-0.00999,0.09l-0.02001,0.09l-0.00999,0.09l-0.03002,0.09l-0.01998,0.09l-0.03,0.08l-0.03,0.09l-0.03,0.08l-0.04001,0.08l-0.03999,0.08l-0.04001,0.08l-0.05001,0.08l-0.04998,0.07l-0.05001,0.07l-0.05999,0.07l-0.06002,0.07l-0.06,0.06l-0.05999,0.07l-0.06,0.06l-0.07001,0.06l-0.06999,0.05l-0.07001,0.05l-0.07998,0.06l-0.07001,0.04l-0.08,0.05l-0.08001,0.04l-0.08,0.04l-0.08999,0.04l-0.08001,0.03l-0.08999,0.03l-0.09,0.03l-0.08999,0.02l-0.09002,0.02l-0.08999,0.02l-0.10001,0.01l-0.08999,0.01l-0.1,0l-0.1,0l-0.09,0l-0.1,0l-0.09999,-0.01l-0.09002,-0.01l-0.08999,-0.02l-0.09,-0.02l-0.1,-0.02l-0.08001,-0.03l-0.08999,-0.03l-0.09,-0.03l-0.08,-0.04l-0.08,-0.04l-0.08,-0.04l-0.08001,-0.05l-0.07998,-0.04l-0.07001,-0.06l-0.07001,-0.05l-0.06999,-0.05l-0.07001,-0.06l-0.06999,-0.06l-0.06,-0.07l-0.05999,-0.06l-0.06002,-0.07l-0.04999,-0.07l-0.06001,-0.07l-0.03999,-0.07l-0.05,-0.08l-0.04,-0.08l-0.05,-0.08l-0.03,-0.08l-0.04001,-0.08l-0.03,-0.09l-0.03,-0.08l-0.01999,-0.09l-0.02,-0.09l-0.02,-0.09l-0.01,-0.09l-0.01001,-0.09l-0.00999,-0.09l0,-0.1l0,-0.09l0.00999,-0.09l0.01001,-0.1l0.01,-0.09l0.02,-0.09l0.02,-0.09l0.01999,-0.08l0.03,-0.09l0.03,-0.08l0.04001,-0.09l0.03,-0.08l0.05,-0.08l0.04,-0.07l0.05,-0.08l0.03999,-0.07l0.06001,-0.07l0.04999,-0.07l0.06002,-0.07l0.05999,-0.07l0.06,-0.06l0.06999,-0.06l0.07001,-0.06l0.06999,-0.06l0.07001,-0.05l0.07001,-0.05l0.07998,-0.05l0.08001,-0.04l0.08,-0.04l0.08,-0.04l0.08,-0.04l0.09,-0.03l0.08999,-0.03l0.08001,-0.03l0.1,-0.02l0.09,-0.02l0.08999,-0.02l0.09002,-0.01l0.09999,-0.01l0.1,-0.01l0.09,0l0.1,0l0.1,0.01z"/>
 </defs>
 <g>
  <title>background</title>
  <rect fill="none" id="canvas_background" height="174" width="141" y="-1" x="-1"/>
 </g>
 <g>
  <title>Layer 1</title>
  <rect id="svg_2" height="168.999996" width="136.500007" y="1.666676" x="1.33333" stroke-width="1.5" stroke="#000" fill="#fff"/>
  <rect stroke="#000" id="svg_11" height="50" width="83" y="17.500016" x="29" fill-opacity="null" stroke-opacity="null" stroke-width="1.5" fill="#fff"/>
  <rect stroke="#000" id="svg_13" height="50.000002" width="79.000004" y="100.166684" x="29.333364" fill-opacity="null" stroke-opacity="null" stroke-width="1.5" fill="#fff"/>
  <text xml:space="preserve" text-anchor="start" font-family="'Trebuchet MS', Gadget, sans-serif" font-size="35" id="svg_18" y="52.666689" x="57" fill-opacity="null" stroke-opacity="null" stroke-width="0" stroke="#000" fill="#000000">1</text>
  <text xml:space="preserve" text-anchor="start" font-family="'Trebuchet MS', Gadget, sans-serif" font-size="35" id="svg_20" y="136.833348" x="57.000037" fill-opacity="null" stroke-opacity="null" stroke-width="0" stroke="#000" fill="#000000">2</text>
 </g>
</svg>